<svg width="78" height="70" viewBox="0 0 78 70" fill="none" xmlns="http://www.w3.org/2000/svg">
<path fill-rule="evenodd" clip-rule="evenodd" d="M67.7403 15.4147C63.6198 7.97889 53.7708 6.61883 47.8983 12.6747L42.0401 18.7158C41.2337 19.5474 40.14 20.0145 38.9996 20.0145C37.8592 20.0145 36.7655 19.5474 35.9592 18.7158L30.1011 12.6749C24.2287 6.61908 14.3797 7.97929 10.2595 15.4152C7.50422 20.3875 8.23228 26.634 12.0516 30.7915L38.9997 60.1252L65.9481 30.792C69.7678 26.6343 70.4959 20.3873 67.7403 15.4147ZM41.8174 6.40393C51.6994 -3.78666 68.273 -1.49799 75.2069 11.0147C79.8438 19.3825 78.6187 29.8946 72.1911 36.8911L43.6818 67.9232C41.1378 70.6923 36.8613 70.6923 34.3174 67.9231L5.80861 36.8905C-0.61854 29.8943 -1.8437 19.3829 2.79276 11.0154C9.7263 -1.49754 26.2999 -3.78649 36.182 6.40413L38.9996 9.30969L41.8174 6.40393Z" fill="#222222"/>
</svg>
