<svg width="56" height="46" viewBox="0 0 56 46" fill="none" xmlns="http://www.w3.org/2000/svg">
<path d="M0 4C0 1.79086 1.79086 0 4 0H52C54.2091 0 56 1.79086 56 4C56 6.20914 54.2091 8 52 8H4C1.79086 8 0 6.20914 0 4Z" fill="black"/>
<path d="M0 23C0 20.7909 1.79086 19 4 19H52C54.2091 19 56 20.7909 56 23C56 25.2091 54.2091 27 52 27H4C1.79086 27 0 25.2091 0 23Z" fill="black"/>
<path d="M0 42C0 39.7909 1.79086 38 4 38H52C54.2091 38 56 39.7909 56 42C56 44.2091 54.2091 46 52 46H4C1.79086 46 0 44.2091 0 42Z" fill="black"/>
</svg>
