<svg width="70" height="88" viewBox="0 0 70 88" fill="none" xmlns="http://www.w3.org/2000/svg">
<path fill-rule="evenodd" clip-rule="evenodd" d="M61.25 34.3415C61.25 47.5505 53.0886 59.4553 35 76.1782C16.9114 59.4553 8.75 47.5505 8.75 34.3415C8.75 20.4389 20.2976 8.8 35 8.8C49.7024 8.8 61.25 20.4389 61.25 34.3415ZM70 34.3415C70 53.1145 57.141 68.3693 35.6657 87.4109C35.2883 87.7456 34.7117 87.7456 34.3343 87.4109C12.859 68.3693 0 53.1145 0 34.3415C0 15.3752 15.67 0 35 0C54.33 0 70 15.3752 70 34.3415ZM43.75 35.2C43.75 40.0601 39.8325 44 35 44C30.1675 44 26.25 40.0601 26.25 35.2C26.25 30.3399 30.1675 26.4 35 26.4C39.8325 26.4 43.75 30.3399 43.75 35.2ZM52.5 35.2C52.5 44.9202 44.665 52.8 35 52.8C25.335 52.8 17.5 44.9202 17.5 35.2C17.5 25.4798 25.335 17.6 35 17.6C44.665 17.6 52.5 25.4798 52.5 35.2Z" fill="#222222"/>
</svg>
