<svg width="58" height="70" viewBox="0 0 58 70" fill="none" xmlns="http://www.w3.org/2000/svg">
<path fill-rule="evenodd" clip-rule="evenodd" d="M37.2857 16.4706C37.2857 21.0188 33.5761 24.7059 29 24.7059C24.4239 24.7059 20.7143 21.0188 20.7143 16.4706C20.7143 11.9224 24.4239 8.23529 29 8.23529C33.5761 8.23529 37.2857 11.9224 37.2857 16.4706ZM45.5714 16.4706C45.5714 25.567 38.1521 32.9412 29 32.9412C19.8479 32.9412 12.4286 25.567 12.4286 16.4706C12.4286 7.37413 19.8479 0 29 0C38.1521 0 45.5714 7.37413 45.5714 16.4706ZM8.28571 65.8824C8.28571 54.5118 17.5598 45.2941 29 45.2941C40.4402 45.2941 49.7143 54.5118 49.7143 65.8824C49.7143 68.1565 51.5691 70 53.8571 70C56.1452 70 58 68.1565 58 65.8824C58 49.9636 45.0163 37.0588 29 37.0588C12.9837 37.0588 0 49.9636 0 65.8824C0 68.1565 1.85482 70 4.14286 70C6.43089 70 8.28571 68.1565 8.28571 65.8824Z" fill="#222222"/>
</svg>
