<svg width="64" height="68" viewBox="0 0 64 68" fill="none" xmlns="http://www.w3.org/2000/svg">
<path fill-rule="evenodd" clip-rule="evenodd" d="M46.5455 27.2C46.5455 37.9301 37.8625 46.6286 27.1515 46.6286C16.4405 46.6286 7.75758 37.9301 7.75758 27.2C7.75758 16.4699 16.4405 7.77143 27.1515 7.77143C37.8625 7.77143 46.5455 16.4699 46.5455 27.2ZM41.0919 50.546C37.017 52.9932 32.2482 54.4 27.1515 54.4C12.1561 54.4 0 42.2221 0 27.2C0 12.1779 12.1561 0 27.1515 0C42.1469 0 54.303 12.1779 54.303 27.2C54.303 34.3016 51.5863 40.7675 47.1372 45.6117L62.8639 61.3667C64.3787 62.8842 64.3787 65.3445 62.8639 66.8619C61.3491 68.3794 58.8932 68.3794 57.3785 66.8619L41.0919 50.546Z" fill="#222222"/>
</svg>
