<svg width="78" height="74" viewBox="0 0 78 74" fill="none" xmlns="http://www.w3.org/2000/svg">
<path fill-rule="evenodd" clip-rule="evenodd" d="M42.4525 2.09499C40.9817 -0.698333 37.0183 -0.698327 35.5475 2.09499L25.5022 21.1719C24.9075 22.3013 23.8081 23.0698 22.5521 23.2342L3.41227 25.7386C0.00393857 26.1846 -1.21791 30.5355 1.45103 32.7224L16.1828 44.7933C17.3244 45.7287 17.8501 47.2318 17.5436 48.6838L13.2092 69.2167C12.5096 72.5308 15.9957 75.1374 18.9299 73.4942L37.1037 63.3164C38.2833 62.6558 39.7167 62.6558 40.8963 63.3164L59.0701 73.4942C62.0043 75.1374 65.4904 72.5307 64.7908 69.2167L60.4564 48.6838C60.1499 47.2318 60.6756 45.7287 61.8172 44.7933L76.549 32.7224C79.2179 30.5355 77.9961 26.1846 74.5877 25.7386L55.4479 23.2342C54.1919 23.0698 53.0925 22.3013 52.4978 21.1719L42.4525 2.09499ZM47.7991 30.1321L39 11.336L30.2009 30.1321L11.6267 31.873L26.8774 43.0561L21.8912 62.6785L39 52.3511L56.1077 62.6785L51.1226 43.0561L66.3726 31.873L47.7991 30.1321Z" fill="#222222"/>
</svg>
